<svg xmlns="http://www.w3.org/2000/svg" xmlns:xlink="http://www.w3.org/1999/xlink">
  <symbol id = "sprite-arrow" width="11" height="19" viewBox="0 0 11 19">
    <path fill-rule="evenodd" clip-rule="evenodd" d="M9.6461 10.4404L2.0981 18.6104C1.98899 18.733 1.85515 18.8312 1.70537 18.8984C1.55559 18.9657 1.39329 19.0005 1.22911 19.0005C1.06494 19.0005 0.902616 18.9657 0.752838 18.8984C0.603061 18.8312 0.469217 18.733 0.360107 18.6104C0.128171 18.3502 -4.31401e-08 18.0136 -5.83743e-08 17.665C-7.36085e-08 17.3165 0.128171 16.9804 0.360107 16.7202L7.03911 9.5L0.360107 2.27002C0.128269 2.01181 2.97603e-05 1.67709 2.97452e-05 1.33008C2.973e-05 0.983063 0.128269 0.648346 0.360107 0.390137C0.469308 0.267441 0.603237 0.169291 0.753097 0.102051C0.902956 0.034811 1.06534 -4.65677e-08 1.2296 -5.37475e-08C1.39385 -6.09272e-08 1.55626 0.034811 1.70611 0.102051C1.85597 0.16929 1.9899 0.267441 2.09911 0.390137L9.6461 8.55029C9.87858 8.81208 10.0067 9.14989 10.0061 9.5C10.0083 9.84741 9.87983 10.1834 9.6461 10.4404Z" fill="#C7C7C7"/>
  </symbol>
  <symbol id="sprite-calendar" width="15" height="15" viewBox="0 0 15 15">
    <path fill-rule="evenodd" clip-rule="evenodd" d="M13.6714 1.47139H11.7892V0.603433C11.7892 0.488847 11.7437 0.378953 11.6626 0.297928C11.5816 0.216903 11.4717 0.171387 11.3572 0.171387C11.2426 0.171387 11.1327 0.216903 11.0517 0.297928C10.9707 0.378953 10.9251 0.488847 10.9251 0.603433V1.47139H8.31777V0.603433C8.31777 0.488847 8.27223 0.378953 8.19121 0.297928C8.1102 0.216903 8.0003 0.171387 7.88573 0.171387C7.77115 0.171387 7.66126 0.216903 7.58025 0.297928C7.49923 0.378953 7.45368 0.488847 7.45368 0.603433V1.47139H4.84634V0.603433C4.84634 0.488847 4.8008 0.378953 4.71978 0.297928C4.63877 0.216903 4.52887 0.171387 4.4143 0.171387C4.29973 0.171387 4.18983 0.216903 4.10882 0.297928C4.0278 0.378953 3.98225 0.488847 3.98225 0.603433V1.47139H2.10001C1.79312 1.47139 1.49888 1.59332 1.28188 1.81035C1.06487 2.02738 0.942871 2.32173 0.942871 2.62866V12.8998C0.942871 13.2068 1.06487 13.5011 1.28188 13.7181C1.49888 13.9352 1.79312 14.0571 2.10001 14.0571H13.6714C13.9783 14.0571 14.2726 13.9352 14.4896 13.7181C14.7066 13.5011 14.8286 13.2068 14.8286 12.8998V2.62866C14.8286 2.32173 14.7066 2.02738 14.4896 1.81035C14.2726 1.59332 13.9783 1.47139 13.6714 1.47139ZM13.957 12.8998C13.9576 12.9377 13.9507 12.9752 13.9366 13.0104C13.9225 13.0455 13.9014 13.0775 13.8748 13.1044C13.8483 13.1313 13.8167 13.1527 13.7818 13.1673C13.7469 13.1818 13.7093 13.1893 13.6714 13.1891H2.10001C2.02281 13.1896 1.94855 13.1593 1.8936 13.1051C1.83864 13.0509 1.80757 12.977 1.80696 12.8998V2.62866C1.80757 2.55145 1.83864 2.47763 1.8936 2.42339C1.94855 2.36916 2.02281 2.33893 2.10001 2.33934H3.98225V3.20729C3.98225 3.32188 4.0278 3.43177 4.10882 3.5128C4.18983 3.59382 4.29973 3.63934 4.4143 3.63934C4.52887 3.63934 4.63877 3.59382 4.71978 3.5128C4.8008 3.43177 4.84634 3.32188 4.84634 3.20729V2.33934H7.45368V3.20729C7.45368 3.32188 7.49923 3.43177 7.58025 3.5128C7.66126 3.59382 7.77115 3.63934 7.88573 3.63934C8.0003 3.63934 8.1102 3.59382 8.19121 3.5128C8.27223 3.43177 8.31777 3.32188 8.31777 3.20729V2.33934H10.9251V3.20729C10.9251 3.32188 10.9707 3.43177 11.0517 3.5128C11.1327 3.59382 11.2426 3.63934 11.3572 3.63934C11.4717 3.63934 11.5816 3.59382 11.6626 3.5128C11.7437 3.43177 11.7892 3.32188 11.7892 3.20729V2.33934H13.6714C13.7093 2.33923 13.7469 2.34667 13.7818 2.36122C13.8167 2.37577 13.8483 2.39714 13.8748 2.42408C13.9014 2.45102 13.9225 2.48299 13.9366 2.51812C13.9507 2.55324 13.9576 2.59082 13.957 2.62866V12.8998ZM3.98225 5.37757H5.71797V6.67911H3.98225V5.37757ZM3.98225 7.54706H5.71797V8.84938H3.98225V7.54706ZM3.98225 9.71733H5.71797V11.0189H3.98225V9.71733ZM7.0141 9.71733H8.74982V11.0189H7.0141V9.71733ZM7.0141 7.54706H8.74982V8.84938H7.0141V7.54706ZM7.0141 5.37757H8.74982V6.67911H7.0141V5.37757ZM10.0535 9.71733H11.7892V11.0189H10.0535V9.71733ZM10.0535 7.54706H11.7892V8.84938H10.0535V7.54706ZM10.0535 5.37757H11.7892V6.67911H10.0535V5.37757Z" fill="currentColor"/>
  </symbol>
  <symbol id = "sprite-close" width="21" height="21" viewBox="0 0 21 21">
    <path fill-rule="evenodd" clip-rule="evenodd" d="M16.788.2a.684.684 0 00-.968 0L.204 15.82a.681.681 0 000 .97.664.664 0 00.484.201.694.694 0 00.484-.201L16.788 1.172a.68.68 0 000-.971zm0 15.619L1.172.2a.686.686 0 00-.968.97L15.82 16.79a.685.685 0 10.968-.97z" fill="#B3B3B3"/>
  </symbol>
  <symbol id="sprite-facebook">
    <path fill-rule="evenodd" clip-rule="evenodd" d="M24.689 25.494h-7.04v-8.791h4.4v-4.395h-4.4V9.67a.885.885 0 01.88-.879h3.96v-4.4h-4.4a5.272 5.272 0 00-4.83 5.275v2.638h-3.52v4.394h3.52v8.792H2.709a1.763 1.763 0 01-1.76-1.759V1.758A1.763 1.763 0 012.71 0h21.98a1.762 1.762 0 011.75 1.758v21.977a1.762 1.762 0 01-1.75 1.759z" fill="#4A68AD"/>
  </symbol>
  <symbol id="sprite-instragram">
    <path fill-rule="evenodd" clip-rule="evenodd" d="M23.379 0H2.989a2.559 2.559 0 00-2.55 2.55v20.397a2.559 2.559 0 002.55 2.55h20.39a2.553 2.553 0 002.55-2.55v-20.4A2.552 2.552 0 0023.38 0zm-10.19 7.648a5.1 5.1 0 11-5.1 5.1 5.11 5.11 0 015.1-5.101v.001zm-9.56 15.3a.6.6 0 01-.64-.637V11.472h2.68a4.257 4.257 0 00-.13 1.275 7.645 7.645 0 0015.29 0 4.56 4.56 0 00-.12-1.275h2.67v10.835a.6.6 0 01-.63.637H3.629v.004zM23.379 5.74a.6.6 0 01-.63.637h-2.55a.602.602 0 01-.64-.637V3.19a.6.6 0 01.64-.636h2.55a.6.6 0 01.63.636v2.55z" fill="#37373F"/>
  </symbol>
  <symbol id="sprite-logo" viewBox = "0 0 129 23">
    <path d="M.496.152V23h3.04V12.536h12.032V23h3.04V.152h-3.04v9.824H3.536V.152H.496zm23.094 0V23h15.872v-2.56H26.63v-7.904h11.872v-2.56H26.63V2.712h12.736V.152H23.59zm19.562 0V23h15.136v-2.56H46.192V.152h-3.04zm23.66 13.504L75.546.152H72.09l-6.688 10.88L58.555.152H54.94l8.832 13.504V23h3.04v-9.344zM78.121.152V23h3.04V12.536h10.495v-2.56H81.161V2.712H93.13V.152H78.121zm18.374 0V23h15.136v-2.56H99.536V.152h-3.04zm23.659 13.504L128.891.152h-3.456l-6.688 10.88-6.848-10.88h-3.616l8.832 13.504V23h3.04v-9.344z" fill="#000"/>
  </symbol>
  <symbol id="sprite-vk">
    <path fill-rule="evenodd" clip-rule="evenodd" d="M25.06 1.347a.624.624 0 01.36.9c-.12.233-.25.46-.37.687a.49.49 0 01-.22.4A38.377 38.377 0 0121 9.024a.03.03 0 00-.02.021c1.67 1.183 5.66 4.2 3.71 5.9-1.02.893-3.98.743-5.12.237a8.772 8.772 0 01-1.831-1.255c-.98-.79-1.25-.744-2.13.1-1.13 1.085-1.76 1.772-3.43 1.575a10.71 10.71 0 01-5.35-2.613A21.617 21.617 0 01.01 1.747a.48.48 0 01.45-.573c.02 0 .02-.01.04-.015A16.937 16.937 0 015.29.988a.62.62 0 01.34.155.3.3 0 01.12.088C6.98 2.713 7.52 4.67 8.8 6.11c.62.7.82.584.88-.377.029-.413.032-.826.01-1.24-.06-1.078-.44-2.023-.6-3.072a.535.535 0 01.07-.4.553.553 0 01.47-.47A44.787 44.787 0 0114.21.49a.465.465 0 01.52.18.33.33 0 01.23.248c.18.942.24 1.903.18 2.86l-.03 1.385c-.01.263-.01.527-.01.79-.1.486.09.67.56.558.79.087 1-.584 1.39-1.2.23-.366.45-.743.66-1.125.5-.9.86-1.843 1.32-2.758a.46.46 0 01.37-.268.376.376 0 01.15-.047 23.643 23.643 0 015.51.234z" fill="#5476A4"/>
  </symbol>
</svg>
